# xmcd
#
# Track frame offsets:
# 150
# 17405
# 34240
# 52700
# 70207
# 87902
# 106247
# 123862
# 140232
# 161065
# 179212
# 195907
#
# Disc length: 2827 seconds
#
#
# Revision: 0
# Processed by: cddbd v1.5.1PL2 Copyright (c) Steve Scherf et al.
# Submitted via: FreeRIP 2.944 
#
DISCID=9e0b090c
DTITLE=Cover - the tribute air supply
DYEAR=2005
DGENRE=Ballad
TTITLE0=lost in love
TTITLE1=all out for love
TTITLE2=goodbye
TTITLE3=young love
TTITLE4=even nights are better
TTITLE5=the one that you love
TTITLE6=sweet dreams
TTITLE7=two less lonely people in the world
TTITLE8=making love out of nothing at all
TTITLE9=lonely is the night
TTITLE10=here i am
TTITLE11=lost in love (edit)
EXTD=
EXTT0=
EXTT1=
EXTT2=
EXTT3=
EXTT4=
EXTT5=
EXTT6=
EXTT7=
EXTT8=
EXTT9=
EXTT10=
EXTT11=
PLAYORDER=
